<svg xmlns="http://www.w3.org/2000/svg" viewBox="16 0 68 132" width="68" height="132">
  <defs>
    <linearGradient id="hoodie" x1="0" y1="0" x2=".35" y2="1">
      <stop offset="0" stop-color="#8A6BFF"/>
      <stop offset=".55" stop-color="#6C4CFF"/>
      <stop offset="1" stop-color="#5238D6"/>
    </linearGradient>
    <linearGradient id="skin" x1=".25" y1="0" x2=".8" y2="1">
      <stop offset="0" stop-color="#F6CFA8"/>
      <stop offset="1" stop-color="#E7B68E"/>
    </linearGradient>
    <linearGradient id="hair" x1=".2" y1="0" x2=".9" y2="1">
      <stop offset="0" stop-color="#7A5138"/>
      <stop offset=".45" stop-color="#54341F"/>
      <stop offset="1" stop-color="#3B2418"/>
    </linearGradient>
    <linearGradient id="legs" x1="0" y1="0" x2="1" y2=".2">
      <stop offset="0" stop-color="#2D2D3F"/>
      <stop offset="1" stop-color="#1F1F2E"/>
    </linearGradient>
  </defs>
  <g>
    <path d="M38.4 74h11.1v46.6h-10.7Z" fill="url(#legs)"/>
    <path d="M50.5 74h11.1l-.4 46.6h-10.7Z" fill="url(#legs)"/>
    <path d="M38.4 74h5v46.6h-4.6Z" fill="#2D2D3F" opacity=".55"/>
    <path d="M38.1 118h11.4v7c0 1.6-1 2.4-2.7 2.4H33.6c-1.3 0-2-.7-2-1.9 0-2.9 2.2-5.2 6.5-7.5Z" fill="#EDE9FF"/>
    <path d="M50.5 118h11.4c4.3 2.3 6.5 4.6 6.5 7.5 0 1.2-.7 1.9-2 1.9H53.2c-1.7 0-2.7-.8-2.7-2.4Z" fill="#EDE9FF"/>
    <path d="M38.1 118h11.4v3.6H36.2c.4-1.2 1.6-2.4 3.7-3.6Zm12.4 0h11.4c2.1 1.2 3.3 2.4 3.7 3.6H50.5Z" fill="#8A6BFF" opacity=".5"/>
    <path d="M31.6 124.4h17.9v3H33.6c-1.3 0-2-.7-2-1.9Zm18.9 0h17.9c0 2.2-.7 3-2 3H53.2c-1.7 0-2.7-.8-2.7-2.4Z" fill="#6C4CFF"/>
    <path d="M33 74.8c0-10.6 6.8-19 17-19s17 8.4 17 19v2.4c0 1.7-1 2.6-2.9 2.6-9.4 1.2-18.8 1.2-28.2 0-1.9 0-2.9-.9-2.9-2.6Z" fill="url(#hoodie)"/>
    <path d="M35.9 79.8c-1.9 0-2.9-.9-2.9-2.6v-2.4c0-8 4-14.6 10.4-17.4l-2.6 22.6Z" fill="#8A6BFF" opacity=".45"/>
    <path d="M57 57.2l2.9 22.6h4.2c1.9 0 2.9-.9 2.9-2.6v-2.4c0-8.4-4.2-15.2-10-17.6Z" fill="#5238D6" opacity=".4"/>
    <path d="M41 55.1c2.7 4.4 5.7 6.6 9 6.6s6.3-2.2 9-6.6c2.5.9 4.5 2.3 6.1 4-3.5 4.5-8.8 7.2-15.1 7.2s-11.6-2.7-15.1-7.2c1.6-1.7 3.6-3.1 6.1-4Z" fill="#8A6BFF"/>
    <path d="M44.6 61.4c1.7.4 3.5.5 5.4.5s3.7-.1 5.4-.5l-1.4 5.6h-8Z" fill="#5238D6" opacity=".35"/>
    <rect x="43.5" y="68.5" width="13" height="13" rx="3.64" fill="#FFFFFF"/><text x="50" y="78.9" text-anchor="middle" font-family="system-ui,-apple-system,Segoe UI,Roboto,sans-serif" font-size="8.06" font-weight="700" fill="#6C4CFF">P.</text>
    <path d="M34.6 63c-1.4 4.6-.6 8.6 2.4 11.6" stroke="#5238D6" stroke-width="8.4" fill="none" stroke-linecap="round"/><circle cx="37.4" cy="76.4" r="5.2" fill="#F6CFA8"/>
    <path d="M65.4 63c1.4 4.6.6 8.6-2.4 11.6" stroke="#5238D6" stroke-width="8.4" fill="none" stroke-linecap="round"/><circle cx="62.6" cy="76.4" r="5.2" fill="#F6CFA8"/>
</g>
  <g transform="translate(50 53.2) scale(0.9) translate(-50 -53.2)"><g id="head">
    <path d="M45.2 44h9.6v11h-9.6Z" fill="#E7B68E"/>
    <path d="M45.2 44h9.6v4.6c-3.4 1.4-6.6 1.4-9.6 0Z" fill="#D2966B" opacity=".55"/>
    <ellipse cx="34.2" cy="35" rx="3.1" ry="4.2" fill="#E7B68E"/>
    <ellipse cx="65.8" cy="35" rx="3.1" ry="4.2" fill="#E7B68E"/>
    <path d="M35 30.4c0-10.8 6.7-18 15-18s15 7.2 15 18v6c0 10.2-6.5 16.8-15 16.8S35 46.6 35 36.4Z" fill="url(#skin)"/>
    <path d="M50 53.2c-8.5 0-15-6.6-15-16.8v-2.6c2.2 7 7.8 11.6 15 11.6s12.8-4.6 15-11.6v2.6c0 10.2-6.5 16.8-15 16.8Z" fill="#E7B68E" opacity=".38"/>
    <ellipse cx="39.6" cy="40.2" rx="3.4" ry="2.1" fill="#FF6B6B" opacity=".22"/>
    <ellipse cx="60.4" cy="40.2" rx="3.4" ry="2.1" fill="#FF6B6B" opacity=".22"/>
    <g fill="url(#hair)">
      <path d="M34.7 31.8C33.7 19.8 40.5 11.8 50 11.8s16.3 8 15.3 20c-1.2-4-3-6.6-4.9-8.2-1.5 1.9-3.7 2.8-6 2.3-2.8-.6-4-2.3-4.5-4-1.9 3.3-5.5 5.9-10.7 6.6-2.4.3-4.1 1.4-5.7 3.3Z"/>
      <path d="M52.6 13c2.7-3.6 5.6-4.8 8.7-3.7-2.5 1.3-4.2 3.2-5 5.7Z"/>
      <path d="M45.2 12.4c1-3.1 2.9-4.8 5.6-5-1.5 1.9-2.1 4-1.9 6.2Z"/>
      <path d="M58.8 15.2c2.9-2.5 5.6-3.1 8.1-1.9-2.3.6-4 2-5.4 4Z"/>
    </g>
    <path d="M38.6 17.6c2.6-3.2 6-5 10.2-5.4-3.4 1.6-6 3.8-8 6.6Z" fill="#7A5138" opacity=".7"/>
    <path d="M37.6 28.6q4-1.6 8 0M54.4 28.6q4-1.6 8 0" stroke="#3B2418" stroke-width="2.1" fill="none" stroke-linecap="round"/>
    <ellipse cx="41.8" cy="35" rx="4.3" ry="4.9" fill="#FFFFFF"/><ellipse cx="41.8" cy="36.7" rx="3.3" ry="3.8" fill="#3B2418"/><ellipse cx="41.8" cy="37.2" rx="1.9" ry="2.2" fill="#1F1F2E"/><circle cx="40.599999999999994" cy="35.1" r="1.4" fill="#FFFFFF"/><circle cx="43.199999999999996" cy="38.2" r=".8" fill="#FFFFFF" opacity=".65"/><ellipse cx="58.2" cy="35" rx="4.3" ry="4.9" fill="#FFFFFF"/><ellipse cx="58.2" cy="36.7" rx="3.3" ry="3.8" fill="#3B2418"/><ellipse cx="58.2" cy="37.2" rx="1.9" ry="2.2" fill="#1F1F2E"/><circle cx="57.0" cy="35.1" r="1.4" fill="#FFFFFF"/><circle cx="59.6" cy="38.2" r=".8" fill="#FFFFFF" opacity=".65"/>
    <path d="M46.2 44.8q3.8 3 7.6 0" stroke="#1F1F2E" stroke-width="2.2" fill="none" stroke-linecap="round"/>
  </g></g><g transform="translate(0 8)"><path d="M36 74h28v13H36Z" fill="#EDE9FF" stroke="#8A6BFF" stroke-width="1.6"/><path d="M50 74v13" stroke="#8A6BFF" stroke-width="1.4"/><path d="M39 78h8M39 81.4h8M53 78h8M53 81.4h8" stroke="#8A6BFF" stroke-width="1.2" stroke-linecap="round" opacity=".8"/></g>
</svg>
